/* XPM */
static char * ddclient_wx_xpm[] = {
"32 32 190 2",
"  	c None",
". 	c #7B7B7B",
"+ 	c #A0A0A0",
"@ 	c #454545",
"# 	c #303030",
"$ 	c #323232",
"% 	c #242424",
"& 	c #2E2E2E",
"* 	c #585858",
"= 	c #515151",
"- 	c #535353",
"; 	c #0C0C0C",
"> 	c #000000",
", 	c #050505",
"' 	c #969293",
") 	c #A0737C",
"! 	c #070707",
"~ 	c #85636A",
"{ 	c #8C3C4D",
"] 	c #2F0C14",
"^ 	c #1D1D1D",
"/ 	c #282828",
"( 	c #030303",
"_ 	c #C7A6AD",
": 	c #C58E99",
"< 	c #470E1A",
"[ 	c #232424",
"} 	c #1B1B1B",
"| 	c #B87886",
"1 	c #080808",
"2 	c #BB7C89",
"3 	c #D6B3BA",
"4 	c #A85E6E",
"5 	c #935160",
"6 	c #662B37",
"7 	c #270004",
"8 	c #1D0308",
"9 	c #25040B",
"0 	c #410B16",
"a 	c #300911",
"b 	c #3E1D24",
"c 	c #281217",
"d 	c #A55969",
"e 	c #661324",
"f 	c #383838",
"g 	c #0D0D0D",
"h 	c #96374C",
"i 	c #410B17",
"j 	c #150206",
"k 	c #200309",
"l 	c #771A2E",
"m 	c #851C32",
"n 	c #A25060",
"o 	c #B37884",
"p 	c #842A3D",
"q 	c #2C2C2C",
"r 	c #090909",
"s 	c #80142B",
"t 	c #2B040C",
"u 	c #070001",
"v 	c #230007",
"w 	c #672B38",
"x 	c #A76A77",
"y 	c #C07E8D",
"z 	c #7E2135",
"A 	c #2B050D",
"B 	c #0A0A0A",
"C 	c #84172E",
"D 	c #490A18",
"E 	c #020000",
"F 	c #1B0207",
"G 	c #380610",
"H 	c #5B0B1C",
"I 	c #26050C",
"J 	c #7A1B2F",
"K 	c #571221",
"L 	c #110205",
"M 	c #4E0A18",
"N 	c #520A19",
"O 	c #120205",
"P 	c #9A4557",
"Q 	c #5B1927",
"R 	c #010000",
"S 	c #6A6A6A",
"T 	c #470916",
"U 	c #700E22",
"V 	c #330610",
"W 	c #2B2B2B",
"X 	c #984052",
"Y 	c #561625",
"Z 	c #484848",
"` 	c #781127",
" .	c #320610",
"..	c #882338",
"+.	c #480B17",
"@.	c #7C1127",
"#.	c #390711",
"$.	c #060002",
"%.	c #1E1E1E",
"&.	c #350610",
"*.	c #7E1A2F",
"=.	c #480917",
"-.	c #070102",
";.	c #121212",
">.	c #5C1C29",
",.	c #7E7E7E",
"'.	c #B26E7D",
").	c #4F0918",
"!.	c #050001",
"~.	c #010101",
"{.	c #893E4E",
"].	c #B05F70",
"^.	c #29040C",
"/.	c #040001",
"(.	c #7C3040",
"_.	c #0A0102",
":.	c #3F3F3F",
"<.	c #8D4050",
"[.	c #1C0308",
"}.	c #772D3D",
"|.	c #090103",
"1.	c #222222",
"2.	c #692937",
"3.	c #4E4E4E",
"4.	c #762738",
"5.	c #0A0003",
"6.	c #C8919D",
"7.	c #3C0D18",
"8.	c #393939",
"9.	c #8D3043",
"0.	c #190308",
"a.	c #813A49",
"b.	c #0D0001",
"c.	c #292929",
"d.	c #903D4F",
"e.	c #0D0204",
"f.	c #995C69",
"g.	c #1E0309",
"h.	c #555555",
"i.	c #0F0F0F",
"j.	c #404040",
"k.	c #2C2D2D",
"l.	c #330811",
"m.	c #0B0003",
"n.	c #A05868",
"o.	c #1D0005",
"p.	c #040404",
"q.	c #141414",
"r.	c #6A2131",
"s.	c #0B0103",
"t.	c #BB8792",
"u.	c #68303C",
"v.	c #210208",
"w.	c #9D5363",
"x.	c #100205",
"y.	c #D7B5BD",
"z.	c #8A4C59",
"A.	c #250209",
"B.	c #A05565",
"C.	c #22030A",
"D.	c #C6929D",
"E.	c #7F4B56",
"F.	c #431821",
"G.	c #C3929C",
"H.	c #A05162",
"I.	c #5A0C1C",
"J.	c #875862",
"K.	c #BE959E",
"L.	c #C7A0A9",
"M.	c #A86E7B",
"N.	c #602430",
"O.	c #200005",
"P.	c #BB838F",
"Q.	c #B6717F",
"R.	c #AE6272",
"S.	c #80404D",
"T.	c #4F202B",
"U.	c #250109",
"V.	c #26050B",
"W.	c #3A0E17",
"X.	c #3C141C",
"Y.	c #260007",
"Z.	c #070000",
"`.	c #843042",
" +	c #6E1528",
".+	c #430512",
"++	c #0D1110",
"@+	c #2F040E",
"#+	c #160307",
"$+	c #190207",
"                                                                ",
"                                                                ",
"    . + @ # $ % & # * = -                                       ",
"      ; >               , , - ' )                               ",
"      ! > >                 ~ { ] ^ /                           ",
"      , ( >               _ : < > > [ }           |             ",
"      } 1 >       2 3 4 5 6 7 8 9 0 a b c         d e           ",
"      f g >         h i     > > >   j k l m n o     p           ",
"      q r >         s t >               > u v w x y z A         ",
"      B > >         C D >               > > > E F G H I         ",
"        > >         J K >               ^ > >     L M N O       ",
"        ^           P Q R               S > >       T U V       ",
"        W           X Y >               Z > >         `  .      ",
"        }           ..+.>               / > >         @.#.$.    ",
"        %.>           &.R               } >           *.=.-.    ",
"        ;.>           >.              ,.> >           '.).!.    ",
"        ~.>           {.              ;.>             ].^./.    ",
"        > >           (._.          :.>               <.[.>     ",
"        ~.>           }.|.        1.>                 2.j       ",
"        3.>           4.5.      q                   6.7.>       ",
"        8.>           9.0.  $ ,                     a.b.        ",
"        c.>           d.e.>                       f.g.          ",
"      h.i.>     . j.k.l.m.                      n.o.            ",
"      p.> > q.q.>     r.s.                  t.u.v.              ",
"          >           w.x.              y.z.A.                  ",
"                      B.C.          D.E.F.E                     ",
"            G.        H.I.J.K.L.M.N.O.                          ",
"            P.Q.R.S.T.U.V.W.X.Y.Z.E                             ",
"            `. +.+++  > > >                                     ",
"            @+j #+$+s.                                          ",
"              > > >                                             ",
"                                                                "};
